<?xml version="1.0" standalone="no"?>
<!DOCTYPE svg PUBLIC "-//W3C//DTD SVG 20010904//EN"
 "http://www.w3.org/TR/2001/REC-SVG-20010904/DTD/svg10.dtd">
<svg version="1.0" xmlns="http://www.w3.org/2000/svg"
 width="260.000000pt" height="260.000000pt" viewBox="0 0 260.000000 260.000000"
 preserveAspectRatio="xMidYMid meet">
<metadata>
Created by potrace 1.11, written by Peter Selinger 2001-2013
</metadata>
<g transform="translate(0.000000,260.000000) scale(0.100000,-0.100000)"
fill="#000000" stroke="none">
<path d="M0 1300 l0 -1300 1300 0 1300 0 0 1300 0 1300 -1300 0 -1300 0 0
-1300z m1551 158 c1 -7 0 -27 -1 -44 -1 -32 13 -53 25 -34 11 17 71 11 89 -9
23 -25 31 -90 17 -133 -17 -52 -54 -69 -132 -60 l-64 7 -3 129 c-1 72 0 136 2
143 7 17 66 17 67 1z m-361 -28 c24 -24 25 -49 6 -76 -13 -17 -12 -21 6 -41
30 -32 26 -82 -7 -110 -23 -20 -37 -23 -111 -23 l-84 0 0 135 0 135 85 0 c72
0 88 -3 105 -20z m225 -56 c50 -33 56 -131 10 -174 -14 -13 -42 -24 -67 -27
-37 -4 -49 -1 -76 22 -52 44 -55 122 -7 171 29 29 102 33 140 8z m-290 -314
c7 0 15 -6 18 -12 3 -10 7 -10 20 1 14 11 20 11 32 1 20 -17 19 -30 -2 -31
-16 0 -16 -1 1 -8 18 -7 18 -8 2 -14 -10 -4 -23 -4 -29 0 -7 4 -21 6 -31 4
-14 -2 -17 2 -13 13 4 9 2 16 -3 16 -6 0 -10 -6 -10 -14 0 -15 -27 -25 -47
-19 -7 3 -13 20 -13 40 0 29 3 33 19 28 11 -3 23 0 27 7 6 9 9 9 12 0 2 -7 10
-12 17 -12z m1015 -15 c0 -8 1 -18 2 -22 1 -5 -11 -10 -27 -13 -34 -6 -39 -24
-7 -28 33 -5 31 -52 -3 -52 -23 0 -24 -3 -27 -77 l-3 -78 -30 0 -30 0 -3 75
c-2 41 -7 79 -12 84 -13 13 -13 46 0 46 6 0 10 6 10 14 0 7 9 25 21 40 17 21
29 26 65 26 32 0 44 -4 44 -15z m-666 -16 c32 -25 35 -75 6 -112 -11 -14 -20
-28 -20 -32 0 -4 18 -29 40 -55 22 -26 37 -50 33 -54 -3 -3 -21 -6 -40 -6 -28
0 -39 8 -70 49 -21 28 -43 50 -50 50 -7 1 -13 -18 -15 -46 -3 -46 -4 -48 -33
-48 l-30 0 -3 138 -3 137 79 0 c65 0 84 -4 106 -21z m253 -73 c36 -42 33 -118
-6 -157 -24 -24 -38 -29 -76 -29 -38 0 -52 5 -76 29 -25 25 -29 37 -29 81 0
44 4 56 30 82 28 28 35 30 82 26 40 -4 57 -12 75 -32z m197 24 c33 -12 56 -58
56 -110 0 -61 -41 -100 -105 -100 -38 0 -52 5 -76 29 -25 25 -29 37 -29 81 0
44 4 56 29 81 31 31 76 38 125 19z m394 -26 c16 -18 22 -36 20 -58 l-3 -31
-63 0 c-65 0 -81 -14 -41 -36 20 -10 54 -8 92 6 14 6 17 2 17 -23 0 -22 -6
-31 -22 -36 -66 -17 -146 3 -168 43 -13 26 -13 97 1 122 28 53 126 60 167 13z
m117 16 c4 -7 12 -7 25 0 35 19 52 12 48 -17 -2 -23 -9 -29 -37 -33 l-35 -5 2
-60 c3 -70 -6 -88 -39 -83 -23 3 -24 7 -27 93 -1 50 0 96 3 103 5 14 51 16 60
2z"/>
<path d="M1562 1328 c-7 -7 -12 -31 -12 -55 0 -38 3 -43 23 -43 31 0 47 18 47
55 0 31 -15 55 -35 55 -6 0 -16 -5 -23 -12z"/>
<path d="M1080 1376 c0 -21 5 -26 26 -26 21 0 25 4 22 23 -2 14 -11 23 -25 25
-19 3 -23 -1 -23 -22z"/>
<path d="M1080 1265 c0 -33 2 -36 26 -33 31 3 54 32 39 46 -6 5 -22 12 -37 16
-27 6 -28 5 -28 -29z"/>
<path d="M1319 1319 c-6 -12 -8 -36 -5 -54 11 -57 61 -57 72 0 7 40 -10 75
-36 75 -11 0 -24 -9 -31 -21z"/>
<path d="M1075 1031 c-3 -5 -1 -12 5 -16 5 -3 10 1 10 9 0 18 -6 21 -15 7z"/>
<path d="M1366 992 c-3 -3 -6 -18 -6 -34 0 -23 4 -28 25 -28 25 0 48 29 37 46
-8 13 -49 24 -56 16z"/>
<path d="M1622 928 c-7 -7 -12 -29 -12 -49 0 -73 62 -78 68 -5 5 54 -26 84
-56 54z"/>
<path d="M1852 928 c-13 -13 -16 -66 -6 -92 7 -19 35 -21 52 -4 27 27 9 108
-23 108 -6 0 -16 -5 -23 -12z"/>
<path d="M2228 939 c-29 -16 -21 -29 17 -29 37 0 43 8 23 28 -14 14 -18 14
-40 1z"/>
</g>
</svg>
